<svg width="48" height="48" viewBox="0 0 48 48" fill="none" xmlns="http://www.w3.org/2000/svg">
<path fill-rule="evenodd" clip-rule="evenodd" d="M25.0662 26.6186C20.7858 29.906 16.0152 32.5006 10.9288 34.307L9.99665 34.638C7.94959 35.3652 5.79597 33.9802 5.52003 31.876C4.84065 26.6958 4.84065 21.3042 5.52003 16.124C5.79597 14.0198 7.94959 12.6348 9.99663 13.3619L10.9288 13.6929C16.0152 15.4995 20.7858 18.094 25.0662 21.3812C25.1414 19.6157 25.2926 17.858 25.52 16.124C25.796 14.0198 27.9496 12.6348 29.9966 13.3619L30.9288 13.6929C36.0738 15.5202 40.8956 18.1538 45.2138 21.495C46.8524 22.763 46.8524 25.237 45.2138 26.505C40.8956 29.8462 36.0738 32.4798 30.9288 34.307L29.9966 34.638C27.9496 35.3652 25.796 33.9802 25.52 31.876C25.2926 30.142 25.1414 28.3842 25.0662 26.6186ZM23.3778 23.8676C23.4644 23.9346 23.4644 24.0654 23.3778 24.1322C19.3111 27.279 14.7701 29.7592 9.92469 31.48L8.99259 31.811C8.79219 31.8822 8.52873 31.7466 8.49455 31.486C7.84915 26.5648 7.84915 21.4352 8.49455 16.5141C8.52873 16.2535 8.79219 16.1177 8.99259 16.1889L9.92469 16.5199C14.7701 18.2408 19.3111 20.721 23.3778 23.8676ZM43.3778 23.8676C43.4644 23.9346 43.4644 24.0654 43.3778 24.1322C39.3112 27.279 34.7702 29.7592 29.9248 31.48L28.9926 31.811C28.7922 31.8822 28.5288 31.7466 28.4946 31.486C27.8492 26.5648 27.8492 21.4352 28.4946 16.5141C28.5288 16.2535 28.7922 16.1177 28.9926 16.1889L29.9248 16.5199C34.7702 18.2408 39.3112 20.721 43.3778 23.8676Z" fill="#BFB48F"/>
</svg>
