<svg width="24" height="24" viewBox="0 0 24 24" fill="none" xmlns="http://www.w3.org/2000/svg">
<path d="M8.88595 7.16994C9.06891 7.17484 9.27175 7.18474 9.46474 7.61312C9.59271 7.8983 9.80829 8.4233 9.9839 8.85096C10.1206 9.18375 10.233 9.4576 10.2611 9.51365C10.3254 9.64165 10.365 9.78935 10.2809 9.96165C10.271 9.98197 10.2617 10.0014 10.2526 10.0201C10.1852 10.1601 10.1372 10.2598 10.0237 10.39C9.97709 10.4436 9.9285 10.5023 9.88008 10.5608C9.79494 10.6637 9.71035 10.7659 9.63785 10.8381C9.50924 10.966 9.37563 11.104 9.52402 11.36C9.6725 11.616 10.1919 12.458 10.9587 13.1374C11.783 13.8713 12.4998 14.1806 12.8622 14.3369C12.9325 14.3673 12.9895 14.3919 13.0313 14.4127C13.2886 14.5407 13.4419 14.521 13.5903 14.3487C13.7388 14.1763 14.2334 13.6002 14.4066 13.3442C14.5748 13.0882 14.7479 13.1276 14.9854 13.2162C15.2228 13.3048 16.4892 13.9252 16.7464 14.0532C16.7972 14.0785 16.8448 14.1013 16.8889 14.1225C17.0678 14.2083 17.1895 14.2666 17.2411 14.3536C17.3054 14.4619 17.3054 14.974 17.0927 15.5747C16.8751 16.1753 15.8263 16.7514 15.3514 16.7957C15.3064 16.8 15.2617 16.8054 15.2156 16.8109C14.7804 16.8636 14.228 16.9304 12.2596 16.1556C9.83424 15.2019 8.23322 12.8355 7.90953 12.3571C7.88398 12.3193 7.86638 12.2933 7.85698 12.2807L7.8515 12.2734C7.70423 12.0763 6.80328 10.8708 6.80328 9.62694C6.80328 8.43691 7.38951 7.81735 7.65689 7.53476C7.67384 7.51685 7.6895 7.5003 7.70366 7.48503C7.94107 7.22904 8.21814 7.16504 8.39125 7.16504C8.56445 7.16504 8.73756 7.16504 8.88595 7.16994Z" fill="#F2EFE9"/>
<path fill-rule="evenodd" clip-rule="evenodd" d="M2.18418 21.3314C2.10236 21.6284 2.37285 21.9025 2.6709 21.8247L7.27824 20.6213C8.7326 21.409 10.37 21.8275 12.0371 21.8275H12.0421C17.5281 21.8275 22 17.3815 22 11.9163C22 9.26735 20.966 6.77594 19.0863 4.90491C17.2065 3.03397 14.7084 2 12.042 2C6.55607 2 2.08411 6.44605 2.08411 11.9114C2.08348 13.65 2.5424 15.3582 3.41479 16.8645L2.18418 21.3314ZM4.86092 17.2629C4.96774 16.8752 4.91437 16.4608 4.71281 16.1127C3.97266 14.8348 3.58358 13.3855 3.58411 11.9114C3.58411 7.28158 7.37738 3.5 12.042 3.5C14.3119 3.5 16.4296 4.37698 18.0281 5.96805C19.6248 7.55737 20.5 9.66611 20.5 11.9163C20.5 16.5459 16.7068 20.3275 12.0421 20.3275H12.0371C10.6206 20.3275 9.22863 19.9718 7.99266 19.3023C7.65814 19.1211 7.26726 19.0738 6.89916 19.17L4.13676 19.8915L4.86092 17.2629Z" fill="#F2EFE9"/>
</svg>
